<?xml version="1.0" standalone="no"?><!DOCTYPE svg PUBLIC "-//W3C//DTD SVG 1.1//EN" "http://www.w3.org/Graphics/SVG/1.1/DTD/svg11.dtd"><svg t="1536540958426" class="icon" style="" viewBox="0 0 1024 1024" version="1.1" xmlns="http://www.w3.org/2000/svg" p-id="1912" xmlns:xlink="http://www.w3.org/1999/xlink" width="200" height="200"><defs><style type="text/css"></style></defs><path d="M419.05230769 490.46974359c24.68102564 32.03282051 58.28923077 51.98769231 95.57333334 51.98769231 36.75897436 0 70.36717949-19.42974359 95.04820512-51.46256411h0.52512821c6.30153846-8.40205128 12.07794872-17.85435897 17.32923077-27.83179487 1.57538462-2.62564103 2.62564103-5.25128205 3.67589743-7.87692307l3.15076923-6.30153847c10.5025641-25.73128205 16.80410256-55.13846154 16.80410257-86.64615384 0-24.68102564-3.67589744-48.83692308-10.5025641-70.36717949-20.48-65.11589744-68.79179487-110.80205128-124.98051282-110.80205128s-104.50051282 45.68615385-124.98051282 110.80205128c-6.82666667 21.53025641-10.5025641 45.16102564-10.50256411 70.36717949 0 31.50769231 5.77641026 60.91487179 16.80410257 86.64615384 4.72615385 15.22871795 12.60307692 29.40717949 22.05538461 41.48512821zM630.15384615 566.08820513c-33.08307692 27.83179487-72.99282051 44.63589744-116.05333333 44.63589743-43.06051282 0-82.97025641-16.27897436-116.05333333-44.63589743-161.73948718 68.79179487-152.28717949 201.64923077-152.28717949 201.64923077h537.20615385c0-136.53333333-133.3825641-194.2974359-152.8123077-201.64923077z" fill="#03A9F4" p-id="1913"></path><path d="M514.10051282 9.9774359C237.35794872 9.9774359 12.60307692 234.20717949 12.60307692 511.47487179c0 276.7425641 224.75487179 501.4974359 501.4974359 501.4974359s501.4974359-224.75487179 501.4974359-501.4974359c0-277.26769231-224.22974359-501.4974359-501.4974359-501.49743589z m337.6574359 757.23487179v22.58051282c-2.62564103 43.58564103-45.16102564 45.68615385-45.16102564 45.68615385h-582.8923077c-42.01025641 0-47.26153846-45.16102564-47.26153846-45.16102564v-24.15589744c9.45230769-183.26974359 173.8174359-251.53641026 176.96820513-252.58666666-26.25641026-42.01025641-42.53538462-94.52307692-42.53538461-151.23692308 0-137.05846154 90.84717949-248.38564103 203.22461538-248.38564103s203.22461538 111.32717949 203.22461539 248.38564103c0 56.71384615-15.75384615 108.70153846-42.01025642 150.71179487 185.37025641 90.84717949 176.44307692 254.16205128 176.44307693 254.16205128z" fill="#03A9F4" p-id="1914"></path></svg>